<svg width="217" height="143" viewBox="0 0 217 143" fill="none" xmlns="http://www.w3.org/2000/svg">
<path d="M165.76 0.727995C174.784 0.727995 182.464 2.35999 188.8 5.62399C195.328 8.69599 200.608 12.824 204.64 18.008C208.864 23.192 211.936 29.144 213.856 35.864C215.776 42.584 216.736 49.496 216.736 56.6V143H182.176V66.392C182.176 62.36 181.888 58.136 181.312 53.72C180.736 49.304 179.488 45.368 177.568 41.912C175.648 38.264 172.96 35.288 169.504 32.984C166.24 30.68 161.824 29.528 156.256 29.528C150.88 29.528 146.272 30.68 142.432 32.984C138.592 35.288 135.424 38.264 132.928 41.912C130.432 45.56 128.608 49.688 127.456 54.296C126.304 58.712 125.728 63.128 125.728 67.544V143H91.168V59.48C91.168 50.84 89.056 43.736 84.832 38.168C80.8 32.408 74.368 29.528 65.536 29.528C60.352 29.528 55.84 30.68 52 32.984C48.16 35.096 44.992 37.88 42.496 41.336C40.192 44.792 38.368 48.824 37.024 53.432C35.872 57.848 35.296 62.36 35.296 66.968V143H0.736001V4.75999H33.568V26.936H34.144C35.68 23.48 37.696 20.216 40.192 17.144C42.88 14.072 45.952 11.288 49.408 8.79199C53.056 6.29599 57.184 4.37599 61.792 3.03199C66.4 1.49599 71.488 0.727995 77.056 0.727995C87.808 0.727995 96.736 3.128 103.84 7.928C110.944 12.728 116.416 19.064 120.256 26.936C124.864 18.488 131.008 12.056 138.688 7.63999C146.368 3.03199 155.392 0.727995 165.76 0.727995Z" fill="#022C43"/>
</svg>
