<svg width="756" height="211" viewBox="0 0 756 211" fill="none" xmlns="http://www.w3.org/2000/svg">
<path d="M165.76 63.728C174.784 63.728 182.464 65.36 188.8 68.624C195.328 71.696 200.608 75.824 204.64 81.008C208.864 86.192 211.936 92.144 213.856 98.864C215.776 105.584 216.736 112.496 216.736 119.6V206H182.176V129.392C182.176 125.36 181.888 121.136 181.312 116.72C180.736 112.304 179.488 108.368 177.568 104.912C175.648 101.264 172.96 98.288 169.504 95.984C166.24 93.68 161.824 92.528 156.256 92.528C150.88 92.528 146.272 93.68 142.432 95.984C138.592 98.288 135.424 101.264 132.928 104.912C130.432 108.56 128.608 112.688 127.456 117.296C126.304 121.712 125.728 126.128 125.728 130.544V206H91.168V122.48C91.168 113.84 89.056 106.736 84.832 101.168C80.8 95.408 74.368 92.528 65.536 92.528C60.352 92.528 55.84 93.68 52 95.984C48.16 98.096 44.992 100.88 42.496 104.336C40.192 107.792 38.368 111.824 37.024 116.432C35.872 120.848 35.296 125.36 35.296 129.968V206H0.736001V67.76H33.568V89.936H34.144C35.68 86.48 37.696 83.216 40.192 80.144C42.88 77.072 45.952 74.288 49.408 71.792C53.056 69.296 57.184 67.376 61.792 66.032C66.4 64.496 71.488 63.728 77.056 63.728C87.808 63.728 96.736 66.128 103.84 70.928C110.944 75.728 116.416 82.064 120.256 89.936C124.864 81.488 131.008 75.056 138.688 70.64C146.368 66.032 155.392 63.728 165.76 63.728ZM248.891 136.304C248.891 125.36 250.811 115.472 254.651 106.64C258.683 97.616 264.059 89.936 270.779 83.6C277.499 77.264 285.467 72.368 294.683 68.912C303.899 65.456 313.691 63.728 324.059 63.728C334.427 63.728 344.219 65.456 353.435 68.912C362.651 72.368 370.619 77.264 377.339 83.6C384.059 89.936 389.339 97.616 393.179 106.64C397.211 115.472 399.227 125.36 399.227 136.304C399.227 147.248 397.211 157.232 393.179 166.256C389.339 175.28 384.059 183.056 377.339 189.584C370.619 195.92 362.651 200.912 353.435 204.56C344.219 208.208 334.427 210.032 324.059 210.032C313.691 210.032 303.899 208.208 294.683 204.56C285.467 200.912 277.499 195.92 270.779 189.584C264.059 183.056 258.683 175.28 254.651 166.256C250.811 157.232 248.891 147.248 248.891 136.304ZM284.027 136.304C284.027 141.68 284.795 147.056 286.331 152.432C288.059 157.808 290.555 162.608 293.819 166.832C297.083 171.056 301.211 174.512 306.203 177.2C311.195 179.888 317.147 181.232 324.059 181.232C330.971 181.232 336.923 179.888 341.915 177.2C346.907 174.512 351.035 171.056 354.299 166.832C357.563 162.608 359.963 157.808 361.499 152.432C363.227 147.056 364.091 141.68 364.091 136.304C364.091 130.928 363.227 125.648 361.499 120.464C359.963 115.088 357.563 110.288 354.299 106.064C351.035 101.84 346.907 98.48 341.915 95.984C336.923 93.296 330.971 91.952 324.059 91.952C317.147 91.952 311.195 93.296 306.203 95.984C301.211 98.48 297.083 101.84 293.819 106.064C290.555 110.288 288.059 115.088 286.331 120.464C284.795 125.648 284.027 130.928 284.027 136.304ZM412 67.76H449.728L486.016 168.56H486.592L523.168 67.76H559.744L504.736 206H467.872L412 67.76ZM580.968 67.76H615.528V206H580.968V67.76ZM576.072 20.816C576.072 15.248 578.088 10.448 582.12 6.41599C586.344 2.19199 591.624 0.0799904 597.96 0.0799904C604.296 0.0799904 609.576 2.09599 613.8 6.128C618.216 9.96799 620.424 14.864 620.424 20.816C620.424 26.768 618.216 31.76 613.8 35.792C609.576 39.632 604.296 41.552 597.96 41.552C591.624 41.552 586.344 39.536 582.12 35.504C578.088 31.28 576.072 26.384 576.072 20.816ZM733.199 104.624C730.127 100.592 725.903 97.136 720.527 94.256C715.151 91.184 709.295 89.648 702.959 89.648C697.391 89.648 692.303 90.8 687.695 93.104C683.087 95.408 680.783 99.248 680.783 104.624C680.783 110 683.279 113.84 688.271 116.144C693.455 118.256 700.943 120.464 710.735 122.768C715.919 123.92 721.103 125.456 726.287 127.376C731.663 129.296 736.463 131.888 740.687 135.152C745.103 138.224 748.655 142.16 751.343 146.96C754.031 151.568 755.375 157.232 755.375 163.952C755.375 172.4 753.743 179.6 750.479 185.552C747.407 191.312 743.183 196.016 737.807 199.664C732.623 203.312 726.479 205.904 719.375 207.44C712.463 209.168 705.263 210.032 697.775 210.032C687.023 210.032 676.559 208.112 666.383 204.272C656.207 200.24 647.759 194.576 641.039 187.28L663.791 165.968C667.631 170.96 672.623 175.088 678.767 178.352C684.911 181.616 691.727 183.248 699.215 183.248C701.711 183.248 704.207 182.96 706.703 182.384C709.391 181.808 711.791 180.944 713.903 179.792C716.207 178.448 718.031 176.72 719.375 174.608C720.719 172.496 721.391 169.904 721.391 166.832C721.391 161.072 718.703 156.944 713.327 154.448C708.143 151.952 700.271 149.456 689.711 146.96C684.527 145.808 679.439 144.368 674.447 142.64C669.647 140.72 665.327 138.32 661.487 135.44C657.647 132.368 654.575 128.624 652.271 124.208C649.967 119.792 648.815 114.32 648.815 107.792C648.815 100.112 650.351 93.488 653.423 87.92C656.687 82.352 660.911 77.84 666.095 74.384C671.279 70.736 677.135 68.048 683.663 66.32C690.191 64.592 696.911 63.728 703.823 63.728C713.807 63.728 723.503 65.456 732.911 68.912C742.511 72.368 750.095 77.648 755.663 84.752L733.199 104.624Z" fill="#022C43"/>
</svg>
