<?xml version="1.0" standalone="no"?>
<!DOCTYPE svg PUBLIC "-//W3C//DTD SVG 20010904//EN"
 "http://www.w3.org/TR/2001/REC-SVG-20010904/DTD/svg10.dtd">
<svg version="1.0" xmlns="http://www.w3.org/2000/svg"
 width="217.000000pt" height="217.000000pt" viewBox="0 0 217.000000 217.000000"
 preserveAspectRatio="xMidYMid meet">
<metadata>
Created by potrace 1.14, written by Peter Selinger 2001-2017
</metadata>
<g transform="translate(0.000000,217.000000) scale(0.100000,-0.100000)"
fill="#000000" stroke="none">
<path d="M715 1789 c-144 -14 -291 -104 -351 -215 -10 -19 -21 -34 -24 -34 -4
0 -5 47 -4 105 1 91 -1 105 -15 106 -9 0 -82 1 -164 2 -141 2 -147 1 -148 -18
-1 -25 0 -1312 0 -1342 1 -23 2 -23 171 -23 129 0 170 3 171 13 0 6 1 187 1
401 1 213 5 411 10 440 31 172 146 280 298 279 128 -2 204 -64 239 -198 7 -25
11 -205 11 -487 l0 -448 173 0 173 0 1 409 c1 335 4 421 17 470 42 163 145
254 286 254 105 -1 174 -42 220 -133 35 -70 40 -137 40 -578 l0 -422 174 0
173 0 -2 493 c-2 536 -2 538 -61 662 -67 141 -202 241 -350 260 -223 28 -416
-48 -522 -207 -13 -21 -28 -38 -32 -38 -4 0 -13 13 -20 29 -13 33 -77 102
-130 143 -78 59 -207 89 -335 77z"/>
</g>
</svg>
